<?xml version="1.0" encoding="UTF-8"?>
<svg id="Layer_1" data-name="Layer 1" xmlns="http://www.w3.org/2000/svg" version="1.1" viewBox="0 0 170.08 99.21">
  <defs>
    <style>
      .cls-1 {
        fill: #f37970;
      }

      .cls-1, .cls-2, .cls-3 {
        stroke-width: 0px;
      }

      .cls-2 {
        fill: #562a7c;
      }

      .cls-3 {
        fill: #fff;
      }
    </style>
  </defs>
  <rect class="cls-3" y="-.14" width="170.08" height="99.21"/>
  <g>
    <path class="cls-2" d="M42.91,37.22h15.91l-1.34,1.93-2.02,3.03-1.12,1.38-12.33.28v1.65h4.48l5.83.28,1.79,1.1,1.12,1.65.45,1.93-.22,2.75-1.12,3.3-2.02,2.75-2.02,1.65-1.57.83-1.34.28h-15.01l-.22-.55,1.57-2.2,2.02-2.75,1.12-1.1h10.76l2.02-.55.67-.83v-1.65l-10.31-.28-2.24-.83-1.57-2.2-.22-.83v-2.2l.67-2.75,1.12-2.2,2.02-2.2,2.24-1.38.9-.28Z"/>
    <path class="cls-2" d="M19.83,37.22h1.79l1.12,1.38,1.57,2.75,3.36,6.88,1.12,1.93.45-1.1,2.02-7.71.9-3.85.22-.28h4.93l-.67,3.03-3.36,13.21-1.79,6.61-1.34,1.93h-2.02l-.9-.55-2.02-3.85-3.14-6.06-1.12-2.2v-.55l-.45.28-3.14,12.11-.45.83h-4.48l-.22-.83,2.24-8.53,3.36-12.94,1.57-2.2.45-.28Z"/>
    <path class="cls-2" d="M81.45,37.22h2.24l1.12,1.65,3.14,15.42.22,1.38v1.93l-3.36,3.85-.9.55h-12.77v-.83l2.02-3.03,2.02-2.48,6.5-.28-.9-4.68-.9-3.58-1.12,1.38-1.57,2.2-2.02,2.75-1.57,2.2-2.02,2.75-2.24,3.3-.67.28h-5.38l.45-1.38,5.83-8.26,3.14-4.13,2.69-3.85,2.91-4.13,1.57-1.93,1.57-1.1Z"/>
    <path class="cls-2" d="M136.36,37.22h1.57l1.12,1.1.67,2.2,1.79,9.08,1.57,8.53.67,3.58-2.02.28h-5.15l-10.98-.28,1.34-2.2.45-.83h.45l.45-1.1.9-1.38.67-.55h6.5l-.67-3.85-.9-4.13v-.83h-.67l-.45,1.1-2.02,2.75-1.57,2.2-2.69,3.58-1.57,2.2-1.79,2.75-.45.28h-5.83l1.34-2.2,2.47-3.3,2.02-3.03,3.14-4.13,1.57-2.2,2.02-2.75,2.02-3.03,2.24-2.75,1.79-1.1Z"/>
    <path class="cls-2" d="M111.03,37.22h10.76l2.02.55,1.34,1.1.9,1.38.67,2.48v2.2l-.9,3.3-1.79,3.03-2.24,2.48-1.79,1.1-2.47.83h-9.41l-.9,2.48-.9,3.3-.22.28h-4.71l.67-2.75,1.12-4.13,2.47-3.3.9-.55v-.55l1.12-1.1,11.43-.28,1.34-1.1.67-1.1.22-2.2v-.55l-1.12-.28-13.89-.28,1.34-2.2,2.69-3.3.67-.83Z"/>
    <path class="cls-2" d="M141.74,37.22h6.05l1.12,3.03,2.24,6.61h.45l1.57-2.2,5.83-7.16.67-.28h5.6l-1.34,1.93-4.03,4.96h-.45l-.45,1.1h-.45l-.22.83-1.57,1.65-3.81,4.68-.22.55h-.45l-.45,1.38-1.79,6.88-.9.83-4.03-.28.45-2.48,1.34-5.23-.67-2.48-4.03-12.11-.45-1.1v-1.1Z"/>
    <path class="cls-2" d="M59.94,37.22h16.14l-.45,1.1-2.91,3.85-1.12,1.38h-4.93l-.67,3.3-2.69,10.19-1.12,4.68-.45.28h-4.48l-.22-.55,2.69-10.19,1.57-6.33.22-1.38h-6.05l1.34-2.2,1.79-2.2,1.34-1.93Z"/>
    <path class="cls-1" d="M97.36,37.22h5.15l1.34,2.48,1.57,3.85,2.69,5.51-1.12,1.38h-.45v.55l-1.79,1.93-1.57,2.48-1.12.55-2.02,2.48-1.79,1.93-1.34,1.65h-5.38v-.55l1.79-1.93,3.36-3.85,2.47-2.48,3.14-3.85-.45-1.65-2.91-6.33-1.57-3.58v-.55Z"/>
    <path class="cls-1" d="M89.97,37.22h5.15l4.03,8.81,1.12,2.48-.22,1.38-2.24,2.75-1.79,1.93-2.69,3.03-1.79,1.93-1.57,1.93-.67.55h-5.38l1.12-1.1,1.79-2.2,1.12-1.1.45-1.1.9-.55,3.59-4.13,2.02-2.2-.22-1.38-2.02-4.4-2.69-6.06v-.55Z"/>
    <path class="cls-2" d="M11.31,37.22h4.71l-.67,3.03-2.69,10.74-2.02,7.71-.9,3.03-.45.28h-4.03l-.45-.55,3.14-11.84,2.91-11.56.45-.83Z"/>
  </g>
</svg>